<?xml version="1.0"?>
<svg xmlns="http://www.w3.org/2000/svg" width="26" height="26" viewBox="0 0 26 26">
    <path d="M 12.96875 0.3125 C 12.42475 0.31175 11.88375 0.86575 10.78125 1.96875 L 4.21875 8.5625 C 3.01075 9.7725 3.4145 10 4.6875 10 L 8 10 L 8 18 C 8 19.657 9.344 21 11 21 L 15 21 C 16.656 21 18 19.657 18 18 L 18 10 L 21.25 10 C 22.66 10 22.957 9.7725 21.75 8.5625 L 15.15625 1.96875 C 14.05575 0.86875 13.51275 0.31325 12.96875 0.3125 z M 0 19 L 0 23 C 0 24.656 1.344 26 3 26 L 23 26 C 24.656 26 26 24.656 26 23 L 26 19 L 24 19 L 24 23 C 24 23.551 23.552 24 23 24 L 3 24 C 2.448 24 2 23.551 2 23 L 2 19 L 0 19 z"/>
</svg>
